<svg width="324" height="324" viewBox="0 0 324 324" fill="none" xmlns="http://www.w3.org/2000/svg">
<rect width="324" height="324" fill="#E4FF3D"/>
<path d="M258.292 162.28C256.822 182.613 205.698 191.291 173.207 191.955C172.479 191.955 171.37 192.087 171.302 191.547C171.227 190.958 172.391 190.923 173.193 190.889C201.446 189.995 232.658 185.466 249.938 172.82C277.088 148.921 211.181 134.239 174.534 134.1C173.343 134.065 171.268 134.301 171.391 133.401C171.493 132.639 173.432 132.992 174.595 133.02C206.718 133.712 256.788 142.21 258.292 162.287H258.285L258.292 162.28Z" fill="#9FB2AE"/>
<path d="M63.7128 162.6C65.1823 142.266 116.307 133.589 148.791 132.924C149.525 132.924 150.627 132.792 150.695 133.333C150.77 133.921 149.607 133.956 148.804 133.991C120.552 134.884 89.3396 139.413 72.0601 152.059C44.9094 175.959 110.817 190.641 147.464 190.779C148.655 190.814 150.73 190.579 150.6 191.479C150.498 192.241 148.559 191.887 147.396 191.86C115.272 191.167 65.2027 182.67 63.6992 162.593H63.706L63.7128 162.6Z" fill="#9FB2AE"/>
<path d="M160.995 207.165C161.533 207.165 161.968 187.144 161.968 162.44C161.968 137.737 161.533 117.716 160.995 117.716C160.458 117.716 160.022 137.737 160.022 162.44C160.022 187.144 160.458 207.165 160.995 207.165Z" fill="#9FB2AE"/>
<path d="M160.994 163.417C185.6 163.417 205.547 162.981 205.547 162.44C205.547 161.9 185.6 161.464 160.994 161.464C136.388 161.464 116.441 161.9 116.441 162.44C116.441 162.981 136.388 163.417 160.994 163.417Z" fill="#9FB2AE"/>
<path d="M260.993 162.079C260.231 151.781 249.347 143.595 228.666 137.757C213.529 133.491 193.338 130.693 174.664 130.291C174.453 130.284 174.215 130.264 173.963 130.25C172.643 130.16 169.119 129.897 168.711 133.034C168.589 133.948 168.868 134.862 169.466 135.541C170.609 136.836 172.378 136.815 173.8 136.801H174.521C206.352 136.926 248.544 147.134 253.204 159.621C253.667 160.86 255.075 164.635 248.245 170.688C238.326 177.911 217.257 186.762 173.065 188.174H172.963C171.909 188.223 170.31 188.299 169.289 189.525C168.745 190.19 168.493 191.035 168.609 191.9C168.772 193.175 169.616 194.677 172.623 194.677C172.698 194.67 172.773 194.67 172.847 194.67H173.256C192.154 194.29 212.658 191.45 228.101 187.108C249.163 181.18 260.225 172.89 260.98 162.474L261 162.273L260.98 162.072L260.993 162.079Z" fill="#9FB2AE"/>
<path d="M148.2 188.085H147.479C115.648 187.961 73.4562 177.753 68.7962 165.266C68.3336 164.026 66.9254 160.252 73.7556 154.199C83.6743 146.976 104.743 138.125 148.935 136.712H149.037C150.092 136.664 151.683 136.588 152.711 135.362C153.262 134.697 153.507 133.845 153.391 132.98C153.214 131.671 152.323 130.126 149.153 130.202H148.745C129.846 130.583 109.342 133.423 93.8991 137.765C72.8304 143.7 61.7755 151.983 61.0136 162.399L61 162.6L61.0136 162.801C61.7755 173.099 72.6603 181.278 93.3413 187.116C108.478 191.382 128.662 194.18 147.343 194.575C147.547 194.582 147.792 194.602 148.044 194.616C148.33 194.644 148.717 194.665 149.146 194.665V194.692C150.731 194.692 152.969 194.318 153.289 191.86C153.411 190.946 153.133 190.031 152.534 189.353C151.391 188.058 149.615 188.079 148.2 188.092V188.085Z" fill="#9FB2AE"/>
<path d="M202.188 165.535C205.834 165.341 208.249 165.217 208.249 162.439C208.249 159.662 205.841 159.538 202.188 159.344C199.923 159.226 196.678 159.115 192.562 159.025C184.997 158.859 175.207 158.762 164.677 158.748C164.656 148.173 164.561 138.339 164.398 130.749C164.309 126.614 164.2 123.359 164.085 121.087C163.894 117.424 163.772 115 161.003 115C158.234 115 158.112 117.417 157.921 121.087C157.806 123.366 157.697 126.614 157.608 130.749C157.445 138.346 157.35 148.173 157.329 158.748C146.798 158.769 137.002 158.866 129.444 159.025C125.321 159.115 122.083 159.226 119.818 159.344C116.171 159.538 113.756 159.662 113.756 162.439C113.756 165.217 116.165 165.341 119.818 165.535C122.083 165.653 125.328 165.764 129.444 165.854C137.002 166.02 146.798 166.117 157.329 166.131C157.35 176.699 157.445 186.526 157.608 194.123C157.697 198.258 157.806 201.513 157.921 203.784C158.112 207.448 158.234 209.872 161.003 209.872C163.772 209.872 163.894 207.455 164.085 203.784C164.2 201.506 164.309 198.258 164.398 194.123C164.561 186.54 164.656 176.706 164.677 166.131C175.207 166.11 185.004 166.013 192.562 165.854C196.684 165.764 199.923 165.653 202.188 165.535Z" fill="#9FB2AE"/>
</svg>
