<svg width="275" height="275" viewBox="0 0 275 275" fill="none" xmlns="http://www.w3.org/2000/svg">
<rect width="275" height="275" fill="black"/>
<g clip-path="url(#clip0_1_4)">
<path d="M63.4313 147.7H53.864V142.13C64.1159 139.771 71.7522 130.666 71.7522 119.792C71.7522 107.122 61.3891 96.8517 48.5977 96.8517C35.8063 96.8517 25.4432 107.122 25.4432 119.792C25.4432 130.66 33.0795 139.765 43.3313 142.13V147.7H33.7641C24.7762 147.7 17.4618 154.945 17.4618 163.847C17.4618 172.751 24.7762 180.001 33.7641 180.001H63.4313C72.4191 180.001 79.7334 172.756 79.7334 163.847C79.7334 154.939 72.4191 147.7 63.4313 147.7ZM35.976 119.792C35.976 112.895 41.6403 107.284 48.5977 107.284C55.5551 107.284 61.2194 112.895 61.2194 119.792C61.2194 126.689 55.561 132.294 48.5977 132.294C41.6344 132.294 35.976 126.684 35.976 119.792ZM63.4313 169.568H33.7641C30.5809 169.568 27.9945 167.001 27.9945 163.847C27.9945 160.695 30.5809 158.133 33.7641 158.133H63.4313C66.6145 158.133 69.2009 160.695 69.2009 163.847C69.2009 167.001 66.6145 169.568 63.4313 169.568Z" fill="white"/>
<path d="M233.827 96.9911C221.042 96.9911 210.673 107.262 210.673 119.926C210.673 120.9 210.731 121.862 210.854 122.801C210.86 122.859 210.866 122.911 210.878 122.969H210.854V128.011C210.854 128.237 210.843 128.458 210.813 128.678C210.48 131.472 208.069 133.651 205.16 133.651C202.065 133.651 199.549 131.17 199.549 128.121V127.542H199.555V114.663C199.555 104.375 191.105 96 180.713 96C175.376 96 170.555 98.2083 167.12 101.75C163.679 98.2083 158.858 96 153.521 96C148.46 96 143.714 97.959 140.162 101.512C136.622 105.048 134.702 109.737 134.744 114.663V122.482H134.726V128.011C134.726 131.118 132.175 133.651 129.033 133.651C125.89 133.651 123.45 131.17 123.45 128.011V123.514C123.649 122.308 123.754 121.068 123.754 119.804C123.754 107.14 113.386 96.8694 100.6 96.8694C87.8147 96.8694 77.4454 107.14 77.4454 119.804C77.4454 132.468 87.8085 142.745 100.6 142.745C106.405 142.745 111.712 140.629 115.779 137.134C118.681 141.331 123.538 144.083 129.033 144.083C137.979 144.083 145.276 136.873 145.276 128.011V122.511V114.617C145.259 112.443 146.095 110.397 147.64 108.856C149.203 107.296 151.292 106.433 153.521 106.433C158.103 106.433 161.83 110.125 161.83 114.663V127.316H161.824V141.632C161.824 142.252 162.333 142.756 162.959 142.756H171.269C171.895 142.756 172.404 142.252 172.404 141.632V114.663C172.404 109.986 176.36 106.207 181.134 106.444C185.593 106.659 189.022 110.473 189.022 114.901V123.264H189.016V128.121C189.016 136.92 196.261 144.083 205.16 144.083C207.15 144.083 209.052 143.73 210.813 143.075V177.179C210.813 177.799 211.322 178.303 211.948 178.303H220.211C220.837 178.303 221.346 177.799 221.346 177.179V139.256C224.951 141.539 229.228 142.866 233.827 142.866C246.619 142.866 256.988 132.596 256.988 119.926C256.988 107.256 246.619 96.9911 233.827 96.9911ZM100.6 132.312C93.6368 132.312 87.9783 126.701 87.9783 119.804C87.9783 112.907 93.6368 107.302 100.6 107.302C107.563 107.302 113.222 112.913 113.222 119.804C113.222 126.696 107.557 132.312 100.6 132.312ZM233.827 132.434C226.87 132.434 221.205 126.823 221.205 119.926C221.205 113.029 226.87 107.424 233.827 107.424C240.785 107.424 246.455 113.034 246.455 119.926C246.455 126.817 240.791 132.434 233.827 132.434Z" fill="white"/>
</g>
<defs>
<clipPath id="clip0_1_4">
<rect width="240" height="84" fill="white" transform="translate(17 96)"/>
</clipPath>
</defs>
</svg>
