<svg width="155" height="155" viewBox="0 0 155 155" fill="none" xmlns="http://www.w3.org/2000/svg">
<path opacity="0.3" d="M41.9011 52.4604C41.9011 46.6283 46.629 41.9005 52.461 41.9005H143.54C149.372 41.9005 154.1 46.6283 154.1 52.4604V143.54C154.1 149.372 149.372 154.099 143.54 154.099H52.461C46.629 154.099 41.9011 149.372 41.9011 143.54V52.4604Z" fill="#FF0093"/>
<path opacity="0.5" d="M133.371 122.813C133.371 128.645 128.643 133.372 122.811 133.372H31.732C25.8999 133.372 21.1721 128.645 21.1721 122.813V31.7334C21.1721 25.9013 25.8999 21.1735 31.732 21.1735H122.811C128.643 21.1735 133.371 25.9013 133.371 31.7334V122.813Z" fill="#FF0093"/>
<path opacity="0.9" d="M112.643 102.083C112.643 107.915 107.915 112.643 102.083 112.643H11.0037C5.17167 112.643 0.443846 107.915 0.443846 102.083V11.0039C0.443846 5.17179 5.17168 0.443968 11.0037 0.443968H102.083C107.915 0.443968 112.643 5.1718 112.643 11.0039V102.083Z" fill="#FF0093"/>
</svg>
