<svg width="86" height="87" viewBox="0 0 86 87" fill="none" xmlns="http://www.w3.org/2000/svg">
<path d="M46.2022 85.2496L79.6985 60.4256C80.8195 59.5949 80.7997 57.8989 79.6603 57.0948L43.9165 31.8754C43.1243 31.3163 42.0715 31.3113 41.2744 31.8631L4.96038 56.99C3.81565 57.7821 3.77828 59.4737 4.8869 60.3164L37.6236 85.2027C40.1691 87.1042 43.6366 87.123 46.2022 85.2496Z" fill="white"/>
<path d="M47.4792 28.9574C46.3495 28.175 46.2962 26.5115 47.3736 25.657L78.7871 0.746433C81.4681 -1.13809 85.1363 0.803804 85.1363 4.10771V51.7048C85.1363 53.1184 83.5658 53.9526 82.4109 53.1526L47.4792 28.9574Z" fill="white"/>
<path d="M37.6571 28.9575C38.7868 28.1751 38.8398 26.5116 37.7624 25.6571L6.34919 0.746558C3.66821 -1.13825 0 0.803929 0 4.10783V51.7049C0 53.1184 1.57065 53.9527 2.72559 53.1527L37.6571 28.9575Z" fill="white"/>
</svg>
