<svg width="1002" height="1002" viewBox="0 0 1002 1002" fill="none" xmlns="http://www.w3.org/2000/svg">
<rect width="1002" height="1002" fill="#979CD0"/>
<path d="M314.7 541.157C316.648 548.511 319.791 551.354 325.345 551.354C331.104 551.354 334.123 547.901 334.123 541.157V415.948H370.194V541.157C370.194 558.807 367.9 566.454 358.935 575.405C352.473 581.855 340.554 586.841 325.505 586.841C313.346 586.841 301.712 582.825 294.292 575.406C287.787 568.901 284.214 562.22 278.63 541.156L256.496 457.684C254.547 450.331 251.405 447.488 245.85 447.488C240.091 447.488 237.071 450.94 237.071 457.684V582.895H201V457.684C201 440.036 203.295 432.388 212.261 423.437C218.72 416.989 230.64 412 245.691 412C257.849 412 269.484 416.018 276.903 423.436C283.408 429.94 286.982 436.622 292.566 457.685L314.7 541.157Z" fill="#F4F5EC"/>
<path d="M687.979 541.157C686.031 548.511 682.888 551.354 677.333 551.354C671.575 551.354 668.555 547.901 668.555 541.157V415.948H632.484V541.157C632.484 558.807 634.778 566.454 643.744 575.405C650.206 581.855 662.124 586.841 677.174 586.841C689.332 586.841 700.967 582.825 708.386 575.406C714.891 568.901 718.465 562.22 724.049 541.156L746.183 457.684C748.132 450.331 751.274 447.488 756.828 447.488C762.588 447.488 765.607 450.94 765.607 457.684V582.895H801.679V457.684C801.679 440.036 799.383 432.388 790.417 423.437C783.958 416.989 772.038 412 756.988 412C744.829 412 733.195 416.018 725.775 423.436C719.27 429.94 715.697 436.622 710.113 457.685L687.979 541.157Z" fill="#F4F5EC"/>
<path d="M546.381 448.872C569.611 451.901 589.319 472.778 589.319 500.5C589.319 530.517 566.214 552.508 540.549 552.508C514.884 552.508 491.78 530.517 491.78 500.5C491.78 493.497 493.037 486.932 495.291 480.98C488.978 468.727 476.991 460.999 464.505 460.434C458.61 472.464 455.287 486.079 455.287 500.5C455.287 549.377 493.46 589 540.549 589C587.638 589 625.811 549.377 625.811 500.5C625.811 451.623 587.638 412 540.549 412C531.805 412 523.369 413.366 515.427 415.904C528.059 424.281 538.666 435.592 546.381 448.872Z" fill="#F4F5EC"/>
<path d="M532.529 449.212C524.596 437.652 514.053 428.156 501.793 421.65C489.532 428.156 478.989 437.652 471.057 449.212C483.236 451.407 494.283 458.513 501.793 468.895C509.303 458.513 520.35 451.407 532.529 449.212Z" fill="#F4F5EC"/>
<path d="M471.057 551.788C478.99 563.348 489.533 572.844 501.793 579.35C514.053 572.844 524.597 563.348 532.529 551.788C520.35 549.593 509.303 542.487 501.793 532.105C494.283 542.487 483.236 549.593 471.057 551.788Z" fill="#F4F5EC"/>
<path d="M508.295 520.02C510.549 514.068 511.806 507.503 511.806 500.5C511.806 470.483 488.701 448.492 463.037 448.492C437.372 448.492 414.267 470.483 414.267 500.5C414.267 528.222 433.974 549.099 457.205 552.128C464.92 565.408 475.527 576.719 488.159 585.096C480.217 587.634 471.781 589 463.037 589C415.948 589 377.774 549.377 377.774 500.5C377.774 451.623 415.948 412 463.037 412C510.126 412 548.299 451.623 548.299 500.5C548.299 514.921 544.976 528.536 539.081 540.566C526.595 540.001 514.608 532.273 508.295 520.02Z" fill="#F4F5EC"/>
</svg>
