<svg width="1183" height="1183" viewBox="0 0 1183 1183" fill="none" xmlns="http://www.w3.org/2000/svg">
<mask id="mask0_456_321" style="mask-type:luminance" maskUnits="userSpaceOnUse" x="0" y="0" width="1183" height="1183">
<path d="M1183 0H0V1183H1183V0Z" fill="white"/>
</mask>
<g mask="url(#mask0_456_321)">
<path fill-rule="evenodd" clip-rule="evenodd" d="M591.5 1157.51C904.873 1157.51 1158.91 903.467 1158.91 590.094C1158.91 276.721 904.873 22.6825 591.5 22.6825C278.127 22.6825 24.0882 276.721 24.0882 590.094C24.0882 903.467 278.127 1157.51 591.5 1157.51ZM1183 590.094C1183 916.771 918.176 1181.59 591.5 1181.59C264.824 1181.59 0 916.771 0 590.094C0 263.418 264.824 -1.40576 591.5 -1.40576C918.176 -1.40576 1183 263.418 1183 590.094Z" fill="white"/>
<path opacity="0.9" fill-rule="evenodd" clip-rule="evenodd" d="M591.498 1117.36C882.699 1117.36 1118.76 881.296 1118.76 590.096C1118.76 298.896 882.699 62.8314 591.498 62.8314C300.298 62.8314 64.2337 298.896 64.2337 590.096C64.2337 881.296 300.298 1117.36 591.498 1117.36ZM1142.85 590.096C1142.85 894.6 896.002 1141.45 591.498 1141.45C286.995 1141.45 40.1455 894.6 40.1455 590.096C40.1455 285.592 286.995 38.7432 591.498 38.7432C896.002 38.7432 1142.85 285.592 1142.85 590.096Z" fill="white"/>
<path opacity="0.8" fill-rule="evenodd" clip-rule="evenodd" d="M591.497 1077.21C860.525 1077.21 1078.61 859.123 1078.61 590.095C1078.61 321.067 860.525 102.977 591.497 102.977C322.469 102.977 104.379 321.067 104.379 590.095C104.379 859.123 322.469 1077.21 591.497 1077.21ZM1102.7 590.095C1102.7 872.426 873.828 1101.3 591.497 1101.3C309.166 1101.3 80.291 872.426 80.291 590.095C80.291 307.764 309.166 78.8892 591.497 78.8892C873.828 78.8892 1102.7 307.764 1102.7 590.095Z" fill="white"/>
<path opacity="0.7" fill-rule="evenodd" clip-rule="evenodd" d="M591.502 1037.07C838.357 1037.07 1038.47 836.952 1038.47 590.097C1038.47 343.242 838.357 143.126 591.502 143.126C344.647 143.126 144.532 343.242 144.532 590.097C144.532 836.952 344.647 1037.07 591.502 1037.07ZM1062.56 590.097C1062.56 850.256 851.661 1061.16 591.502 1061.16C331.344 1061.16 120.443 850.256 120.443 590.097C120.443 329.938 331.344 119.038 591.502 119.038C851.661 119.038 1062.56 329.938 1062.56 590.097Z" fill="white"/>
<path opacity="0.6" fill-rule="evenodd" clip-rule="evenodd" d="M591.502 996.919C816.184 996.919 998.325 814.778 998.325 590.095C998.325 365.413 816.184 183.272 591.502 183.272C366.819 183.272 184.678 365.413 184.678 590.095C184.678 814.778 366.819 996.919 591.502 996.919ZM1022.41 590.095C1022.41 828.081 829.488 1021.01 591.502 1021.01C353.516 1021.01 160.59 828.081 160.59 590.095C160.59 352.109 353.516 159.184 591.502 159.184C829.488 159.184 1022.41 352.109 1022.41 590.095Z" fill="white"/>
<path opacity="0.5" fill-rule="evenodd" clip-rule="evenodd" d="M591.5 956.774C794.01 956.774 958.177 792.608 958.177 590.098C958.177 387.588 794.01 223.421 591.5 223.421C388.99 223.421 224.824 387.588 224.824 590.098C224.824 792.608 388.99 956.774 591.5 956.774ZM982.265 590.098C982.265 805.911 807.313 980.862 591.5 980.862C375.687 980.862 200.735 805.911 200.735 590.098C200.735 374.284 375.687 199.333 591.5 199.333C807.313 199.333 982.265 374.284 982.265 590.098Z" fill="white"/>
<path opacity="0.4" fill-rule="evenodd" clip-rule="evenodd" d="M591.499 916.626C771.836 916.626 918.028 770.433 918.028 590.096C918.028 409.759 771.836 263.567 591.499 263.567C411.161 263.567 264.969 409.759 264.969 590.096C264.969 770.433 411.161 916.626 591.499 916.626ZM942.116 590.096C942.116 783.737 785.139 940.714 591.499 940.714C397.858 940.714 240.881 783.737 240.881 590.096C240.881 396.455 397.858 239.479 591.499 239.479C785.139 239.479 942.116 396.455 942.116 590.096Z" fill="white"/>
<path opacity="0.3" fill-rule="evenodd" clip-rule="evenodd" d="M591.497 876.477C749.662 876.477 877.879 748.26 877.879 590.095C877.879 431.93 749.662 303.713 591.497 303.713C433.332 303.713 305.115 431.93 305.115 590.095C305.115 748.26 433.332 876.477 591.497 876.477ZM901.968 590.095C901.968 761.563 762.965 900.566 591.497 900.566C420.029 900.566 281.026 761.563 281.026 590.095C281.026 418.627 420.029 279.625 591.497 279.625C762.965 279.625 901.968 418.627 901.968 590.095Z" fill="white"/>
<path opacity="0.2" fill-rule="evenodd" clip-rule="evenodd" d="M591.502 836.332C727.494 836.332 837.738 726.089 837.738 590.097C837.738 454.105 727.494 343.862 591.502 343.862C455.51 343.862 345.267 454.105 345.267 590.097C345.267 726.089 455.51 836.332 591.502 836.332ZM861.826 590.097C861.826 739.393 740.798 860.42 591.502 860.42C442.207 860.42 321.179 739.393 321.179 590.097C321.179 440.801 442.207 319.773 591.502 319.773C740.798 319.773 861.826 440.801 861.826 590.097Z" fill="white"/>
<path opacity="0.1" fill-rule="evenodd" clip-rule="evenodd" d="M591.501 796.184C705.32 796.184 797.589 703.915 797.589 590.095C797.589 476.276 705.32 384.007 591.501 384.007C477.681 384.007 385.412 476.276 385.412 590.095C385.412 703.915 477.681 796.184 591.501 796.184ZM821.677 590.095C821.677 717.218 718.624 820.272 591.501 820.272C464.378 820.272 361.324 717.218 361.324 590.095C361.324 462.972 464.378 359.919 591.501 359.919C718.624 359.919 821.677 462.972 821.677 590.095Z" fill="white"/>
</g>
</svg>
