<svg width="216" height="216" viewBox="0 0 216 216" fill="none" xmlns="http://www.w3.org/2000/svg">
<g id="Orbiter_Icon_Black">
<path id="Vector 4" fill-rule="evenodd" clip-rule="evenodd" d="M140.942 115.558C140.259 107.235 139.043 92.393 138.678 83.4099C138.399 75.3116 135.005 67.6415 129.215 62.0267C123.425 56.4115 115.693 53.2943 107.663 53.3356C99.6368 53.3005 91.9129 56.4206 86.1281 62.0349C80.3437 67.6491 76.9537 75.3159 76.6768 83.4099C76.2663 92.944 75.0046 108.971 74.3624 116.829C74.3172 117.405 74.3928 117.984 74.5855 118.528C74.7777 119.072 75.0822 119.568 75.4785 119.985C75.8747 120.401 76.3543 120.728 76.8847 120.944C77.4156 121.16 77.9855 121.26 78.5574 121.237C84.2166 120.993 94.655 120.642 107.275 120.7C120.22 120.759 131.04 121.174 136.855 121.448C137.429 121.472 138.001 121.373 138.535 121.157C139.067 120.941 139.549 120.613 139.947 120.195C140.344 119.777 140.65 119.279 140.842 118.733C141.034 118.186 141.109 117.606 141.062 117.028C141.024 116.565 140.984 116.074 140.942 115.558ZM97.4946 71.3265C100.493 69.3062 104.017 68.2285 107.622 68.2295H107.634C112.465 68.2343 117.097 70.174 120.511 73.6224C123.926 77.0713 125.844 81.7462 125.844 86.6212C125.844 90.2588 124.775 93.8147 122.771 96.8393C120.769 99.8639 117.921 102.221 114.591 103.613C111.26 105.005 107.594 105.369 104.059 104.659C100.523 103.948 97.2748 102.196 94.7263 99.6239C92.1774 97.051 90.442 93.7734 89.7393 90.2055C89.0367 86.6375 89.3982 82.9395 90.7788 79.5789C92.1593 76.2184 94.4961 73.3464 97.4946 71.3265Z" fill="url(#paint0_linear_576_395)"/>
<path id="Vector 3" d="M107.948 76.0752C109.006 77.3002 109.589 78.8703 109.591 80.4952C109.572 81.425 109.372 82.3418 109.002 83.1933C108.631 84.0454 108.099 84.8148 107.433 85.4585C106.768 86.1022 105.983 86.6072 105.124 86.9446C104.266 87.2821 103.349 87.4458 102.427 87.4256C101.364 87.4323 100.312 87.2019 99.3461 86.7507C98.3809 86.2995 97.5265 85.6385 96.8438 84.8158C96.7163 85.4657 96.6507 86.1262 96.6469 86.7891C96.6469 92.7091 101.6 97.5083 107.71 97.5083C113.821 97.5083 118.768 92.7091 118.768 86.7891C118.768 80.8686 113.948 76.1688 107.948 76.0752Z" fill="#222222"/>
<path id="Vector 2" d="M124.287 64.9561C124.146 64.9648 124.005 64.9451 123.872 64.898C123.739 64.8515 123.616 64.778 123.511 64.683C123.406 64.588 123.321 64.4728 123.26 64.3446C123.2 64.2159 123.165 64.0763 123.159 63.9342C123.066 61.5403 123.494 56.636 129.639 51.2822C133.875 47.598 139.771 46.2669 147.189 47.3178C147.331 47.3375 147.467 47.3859 147.59 47.4601C147.712 47.5343 147.818 47.6327 147.902 47.7494C147.986 47.8662 148.046 47.9988 148.077 48.1394C148.109 48.2799 148.112 48.4254 148.087 48.5672V48.5672C148.037 48.832 147.89 49.068 147.676 49.2283C147.461 49.3885 147.195 49.461 146.929 49.4314C140.176 48.468 134.876 49.624 131.15 52.8586C125.803 57.5293 125.329 61.7156 125.364 63.8641C125.37 64.1401 125.269 64.408 125.084 64.6105C124.898 64.8131 124.641 64.935 124.368 64.9499L124.287 64.9561Z" fill="#222222"/>
<path id="Ellipse 2" d="M145.687 50.5414C147.384 50.5414 148.76 49.2057 148.76 47.5579C148.76 45.9102 147.384 44.5745 145.687 44.5745C143.99 44.5745 142.614 45.9102 142.614 47.5579C142.614 49.2057 143.99 50.5414 145.687 50.5414Z" fill="#222222"/>
<path id="Vector 1" d="M92.1674 65.1549C92.3078 65.1645 92.449 65.1453 92.5822 65.0992C92.715 65.0531 92.8377 64.9807 92.9428 64.8861C93.048 64.7915 93.1331 64.6768 93.194 64.5482C93.2544 64.42 93.2892 64.2808 93.2958 64.1387C93.3943 61.6868 92.989 56.0994 86.815 50.7103C82.5853 47.0262 76.683 45.695 69.265 46.746C69.1237 46.7665 68.9881 46.8154 68.8659 46.8898C68.7441 46.9642 68.638 47.0626 68.5543 47.1791C68.4705 47.2956 68.4111 47.428 68.3792 47.5682C68.3473 47.7084 68.3435 47.8537 68.3683 47.9954C68.4173 48.2601 68.5643 48.4962 68.7788 48.6564C68.9934 48.8167 69.2598 48.8892 69.5252 48.8595C76.2782 47.8961 81.5839 49.0522 85.3046 52.2867C90.6689 56.9577 91.1318 61.827 91.0623 64.0341C91.0542 64.3115 91.1536 64.5813 91.3392 64.7863C91.5252 64.9912 91.7826 65.1151 92.0575 65.1314L92.1674 65.1549Z" fill="#222222"/>
<path id="Ellipse 1" d="M71.2155 50.5414C72.9124 50.5414 74.2882 49.2057 74.2882 47.5579C74.2882 45.9102 72.9124 44.5745 71.2155 44.5745C69.5186 44.5745 68.1428 45.9102 68.1428 47.5579C68.1428 49.2057 69.5186 50.5414 71.2155 50.5414Z" fill="#222222"/>
<path id="Vector " fill-rule="evenodd" clip-rule="evenodd" d="M206.472 159.294C206.472 149.62 182.458 134.253 182.458 134.253L182.18 134.171C182.579 132.543 182.958 131.006 183.318 129.548L183.32 129.539C186.531 116.524 188.201 109.756 188.435 100.308C189.014 76.3056 183.014 55.9876 167.934 38.1741C153.914 21.6102 131.596 12 107.756 12C82.4174 12 62.8884 21.7445 48.3936 37.888C33.8988 54.0315 26.6253 71.5415 27.0419 100.039C27.1634 108.014 28.9572 121.402 32.8283 133.406L32.5563 133.488C32.5563 133.488 9 148.563 9 159.008C9 162.097 21.73 166.015 47.9885 167.258L33.3432 189.398C32.7646 191.283 33.1234 193.876 34.6915 194.985C36.2374 196.012 38.006 196.647 39.8471 196.836C42.6304 196.918 43.4983 196.106 44.5225 194.244L59.2257 168.414C74.8491 169.039 84.7898 169.372 102.664 169.407V198.967C102.768 200.748 103.514 204 108.254 204C112.558 204 113.299 200.952 113.299 198.967V169.424C117.782 169.415 121.751 169.424 125.429 169.432C136.398 169.455 144.776 169.473 156.454 169.01L171.863 193.958C172.144 194.763 172.678 195.453 173.384 195.922C174.091 196.392 174.931 196.614 175.775 196.556C177.279 196.578 178.758 196.173 180.045 195.388C181.781 194.606 181.781 191.727 181.081 189.118L166.569 167.83C191.913 165.705 206.472 161.776 206.472 159.294ZM54.3998 156.457C52.042 156.42 49.7952 155.44 48.1535 153.732C46.5118 152.024 45.6095 149.728 45.645 147.349C45.645 142.316 49.5624 138.807 54.3998 138.807C59.2372 138.807 63.1548 142.31 63.1548 147.349C63.1886 149.727 62.2861 152.023 60.6444 153.73C59.0031 155.438 56.7572 156.419 54.3998 156.457ZM102.646 155.561C104.168 156.528 105.941 157.015 107.738 156.959C110.097 156.922 112.343 155.942 113.985 154.234C115.626 152.526 116.529 150.23 116.493 147.851C116.494 146.036 115.957 144.263 114.952 142.758C113.948 141.253 112.521 140.085 110.854 139.403C109.187 138.721 107.357 138.557 105.598 138.931C103.838 139.306 102.229 140.201 100.977 141.504C99.7248 142.807 98.8866 144.457 98.5697 146.243C98.2529 148.029 98.4713 149.87 99.1977 151.53C99.9241 153.19 101.125 154.594 102.646 155.561ZM161.072 157.467C159.274 157.523 157.501 157.036 155.979 156.069C154.458 155.101 153.257 153.698 152.53 152.038C151.804 150.378 151.586 148.537 151.903 146.751C152.22 144.964 153.058 143.315 154.31 142.012C155.562 140.71 157.171 139.813 158.93 139.44C160.69 139.065 162.521 139.229 164.187 139.911C165.854 140.593 167.281 141.761 168.286 143.266C169.29 144.771 169.826 146.544 169.826 148.359C169.86 150.738 168.958 153.033 167.316 154.74C165.675 156.448 163.429 157.429 161.072 157.467ZM111.093 126.709C134.764 126.699 158.341 126.69 174.502 130.843C174.737 129.919 175.005 128.908 175.293 127.819C177.165 120.744 179.91 110.372 180.387 99.1807C182.145 58.1534 153.74 19.193 107.733 19.193C61.7252 19.193 34.2401 58.1241 35.5594 99.1807C35.8429 108.014 38.0534 119.417 40.8713 130.843C57.4446 126.533 77.4322 126.608 98.8783 126.688C101.804 126.699 104.757 126.71 107.733 126.71C108.852 126.71 109.973 126.709 111.093 126.709Z" fill="#222222"/>
</g>
<defs>
<linearGradient id="paint0_linear_576_395" x1="52.1352" y1="95.8318" x2="108.123" y2="151.883" gradientUnits="userSpaceOnUse">
<stop stop-color="#EF2F2D"/>
<stop offset="1" stop-color="#89272D"/>
</linearGradient>
</defs>
</svg>
