<?xml version="1.0" encoding="UTF-8"?>
<svg id="Layer_2" data-name="Layer 2" xmlns="http://www.w3.org/2000/svg" viewBox="0 0 924.47 246.54">
  <defs>
    <style>
      .cls-1 {
        fill: #27f62c;
      }
    </style>
  </defs>
  <g id="Layer_1-2" data-name="Layer 1">
    <g>
      <path class="cls-1" d="M145.22,0v7.48h7.97v8.02h76.26v7.44h7.48v7.53h7.88v31.23h-7.71v14.97h-7.53v15.64h-7.39v7.44h-15.46v8.11h-7.48v7.44h-15.55v7.53h-15.46v8.11h-14.92v7.35h22.76v-7.17h53.32v7.26h7.31v23.12h-7.13v8.02h-76.4v7.53h-45.88v23.12h-8.06v30.56h-7.48v8.07h-15.46v-7.84h-7.39v-53.73h-7.44v-23.03h7.26v-7.53h7.39v-8.11h8.06v-15.55h7.48v-23.12h7.31v-30.52h-7.13v7.26h-22.99v8.02h-22.99v7.57h-22.81v7.39H7.53v-7.35H0v-30.61h15.68v-8.2h22.9v-7.53h30.43v-7.44h22.99v-8.11h22.9v-7.53h7.48V7.48h7.97V0h14.92-.04ZM137.65,61.7v30.74h-7.17v22.81h7.35v-7.35h7.48v-8.11h15.46v-7.53h7.48v-7.44h8.06v-8.11h7.39v-7.53h7.48v-7.44h8.06v-8.11h7.08v-7.12h-38.4v7.35h-22.9v7.93h-7.48l.09-.09Z"/>
      <path class="cls-1" d="M794.26,246.54v-7.48h-7.3v-23.03h7.22v-23.03h8.06v-15.64h7.39v-15.64h7.49v-14.97h8.06v-8.11h7.39v-15.64h7.44v-14.83h-7.26v7.21h-15.46v7.44h-14.88v8.02h-31.05v-7.75h-7.39v-53.68h7.13v-30.65h8.06V15.73h7.49V7.66h15.46v7.89h7.49v7.44h7.35v23.12h-7.17v15.55h-7.3v14.92h14.57v-7.17h15.54v-7.53h7.4v-8.11h8.06v-7.44h14.97v-7.53h15.46v-15.64h15.54v-7.53h30.47v38.04h-7.53v15.64h-8.06v7.53h-7.39v15.64h-7.49v7.44h-8.06v15.64h-7.39v15.64h-7.49v15.5h-8.06v7.53h-7.39v15.64h-7.49v14.92h-8.06v15.64h-7.39v23.12h-7.49v15.5h-7.97v7.48h-22.94Z"/>
      <path class="cls-1" d="M423.86,0v7.48h7.88v15.55h-7.8v7.44h-7.48v8.11h-7.4v15.06h-8.06v15.55h-7.48v15.64h-7.4v7.53h-8.06v15.55h-7.48v15.06h-7.4v23.61h-7.97v23.12h-7.48v23.03h-7.49v7.48h-22.9v-15.37h-8.06v-30.56h-7.48v-54.31h-7.3v-46.2h7.17v-7.35h15.55v7.21h7.4v8.11h7.48v37.95h7.97v-7.12h7.49v-15.64h7.39v-15.06h8.06v-8.02h7.49v-15.06h7.39v-15.64h8.06v-7.44h7.49V7.57h7.48V0h22.94Z"/>
      <path class="cls-1" d="M564.58,61.88v-8.11h-7.17v-14.97h7.13v-8.11h31.05v-7.35h68.91v7.17h22.9v8.11h22.99v7.44h30.47v7.53h7.39v8.11h8.02v38.04h-15.32v15.64h-30.25v7.44h22.59v8.11h14.97v7.44h15.55v8.11h7.3v7.53h-7.17v7.44h-7.48v8.07h-30.91v-7.89h-22.99v-7.44h-37.91v-7.48h-22.9v22.85h-7.98v23.12h-7.48v7.35h-22.99v-7.17h-7.3v-31.23h7.17v-30.56h7.48v-23.12h7.97v-23.12h7.44v-23.03h-61.34l-.13.09ZM717.77,76.71h-22.9v-7.26h-30.42v15.55h-8.06v14.92h-7.13v7.84h22.81v-8.07h15.55v-7.44h14.97v-7.53h15.23v-8.11l-.05.09Z"/>
      <path class="cls-1" d="M298.28,223.51h-7.17v7.21h-15.55v-7.21h-7.39v-15.64h-8.06v-30.52h-7.35V38.8h7.17v-8.11h8.06v-7.35h7.48v7.17h7.39v123.54h8.15v38.72h7.3v30.74h-.04Z"/>
      <path class="cls-1" d="M473.04,169.56v-31.1h7.62v-23.12h-7.97v-7.44h-7.48v-61.84h-7.4v-7.26h-22.9v7.48h-8.06v7.44h-7.48v8.11h-7.39v15.06h-8.06v15.55h-7.48v7.53h-7.39v15.55h-7.98v15.64h-7.48v23.03h-7.48v23.12h-7.75v22.76h22.9v-7.35h8.06v-8.11h7.39v-14.97h22.9v-7.8h22.98v31.01h7.49v7.3h15.19v-7.53h7.88v-23.08h-.09ZM434.82,122.82h-7.84v8.07h-7.39v-22.9h7.26v-7.98h7.98v22.81Z"/>
      <path class="cls-1" d="M587.52,130.93v-7.75h-22.98v8.02h-22.9v7.17h-14.66v-30.47h7.35v-23.03h7.48v-31.23h7.75v-30.65h-7.93v-7.21h-14.97v7.44h-7.97v7.57h-7.49v31.1h-7.39v30.56h-8.06v23.12h-7.4v31.23h-7.48v22.81h.13v15.41h7.53v7.66h22.98v-8.02h7.4v-7.53h22.98v-7.44h15.46v-8.02h30.47v-7.53h7.75v-23.12h-7.93l-.13-.09Z"/>
    </g>
  </g>
</svg>