<svg width="202" height="22" viewBox="0 0 202 22" fill="none" xmlns="http://www.w3.org/2000/svg">
<path d="M8.75796 21.0894C7.48869 21.0894 6.31706 20.943 5.24306 20.65C4.18859 20.3571 3.22199 19.9178 2.34327 19.332C1.48407 18.7266 0.702981 17.9846 0 17.1059L2.10894 14.5576C3.18294 15.9049 4.24717 16.8618 5.30164 17.4281C6.35611 17.9748 7.57657 18.2482 8.963 18.2482C9.80267 18.2482 10.5935 18.131 11.3356 17.8967C12.0776 17.6624 12.6732 17.3207 13.1223 16.8715C13.5714 16.4224 13.796 15.8854 13.796 15.2605C13.796 14.8505 13.6886 14.4892 13.4738 14.1768C13.2785 13.8643 12.9954 13.6007 12.6244 13.3859C12.2729 13.1516 11.853 12.9466 11.3649 12.7708C10.8962 12.5951 10.3983 12.4486 9.87102 12.3314C9.34378 12.1948 8.79702 12.0874 8.23073 12.0092C7.07862 11.814 6.05344 11.5504 5.15519 11.2184C4.25694 10.8864 3.49538 10.4666 2.8705 9.95889C2.26516 9.45118 1.80627 8.86536 1.49383 8.20144C1.1814 7.51798 1.02518 6.73689 1.02518 5.85817C1.02518 4.99897 1.22045 4.20812 1.611 3.48561C2.02107 2.7631 2.57759 2.148 3.28058 1.64029C4.00308 1.11305 4.84275 0.712743 5.79959 0.439362C6.75642 0.146454 7.79137 0 8.90442 0C10.0956 0 11.1793 0.136691 12.1557 0.410072C13.1321 0.683453 14.001 1.09352 14.7626 1.64029C15.5242 2.16752 16.1588 2.82169 16.6665 3.60277L14.499 5.85817C14.0498 5.19424 13.5324 4.63772 12.9466 4.18859C12.3607 3.73946 11.7163 3.4075 11.0134 3.1927C10.3299 2.95838 9.59764 2.84121 8.81655 2.84121C7.93782 2.84121 7.15673 2.95838 6.47328 3.1927C5.80935 3.42703 5.28212 3.75899 4.89157 4.18859C4.50103 4.59866 4.30576 5.09661 4.30576 5.68242C4.30576 6.13155 4.41316 6.53186 4.62795 6.88335C4.84275 7.23484 5.15519 7.54728 5.56526 7.82066C5.97533 8.07451 6.50257 8.29907 7.14697 8.49435C7.79137 8.67009 8.52364 8.82631 9.34378 8.963C10.4568 9.15827 11.482 9.41212 12.4193 9.72456C13.3762 10.0175 14.1963 10.3885 14.8798 10.8376C15.5827 11.2672 16.1197 11.7944 16.4907 12.4193C16.8813 13.0442 17.0766 13.7765 17.0766 14.6161C17.0766 15.9245 16.7348 17.0668 16.0514 18.0432C15.3679 19.0195 14.4013 19.7713 13.1516 20.2986C11.9214 20.8258 10.4568 21.0894 8.75796 21.0894Z" fill="black"/>
<path d="M32.4849 21.0894C30.9813 21.0894 29.5851 20.8356 28.2963 20.3278C27.0075 19.8201 25.875 19.0976 24.8986 18.1603C23.9418 17.223 23.1997 16.11 22.6725 14.8212C22.1453 13.5324 21.8816 12.1069 21.8816 10.5447C21.8816 9.06064 22.1648 7.69373 22.7311 6.44399C23.2974 5.17472 24.0687 4.07143 25.045 3.13412C26.0409 2.17729 27.1833 1.43525 28.4721 0.908017C29.7804 0.380781 31.1668 0.117164 32.6314 0.117164C33.764 0.117164 34.8575 0.283145 35.912 0.615109C36.9664 0.927544 37.9233 1.34738 38.7825 1.87461C39.6417 2.40185 40.3349 2.9779 40.8621 3.60277L38.841 6.00462C38.2162 5.41881 37.5718 4.93063 36.9078 4.54008C36.2439 4.13001 35.5409 3.81757 34.7989 3.60277C34.0764 3.36845 33.3148 3.25128 32.5142 3.25128C31.5379 3.25128 30.6005 3.42703 29.7023 3.77852C28.804 4.13001 28.0132 4.62795 27.3297 5.27235C26.6463 5.91675 26.0995 6.68808 25.6894 7.58633C25.2989 8.48458 25.1036 9.47071 25.1036 10.5447C25.1036 11.6968 25.2989 12.7318 25.6894 13.6495C26.0995 14.5673 26.656 15.3484 27.359 15.9928C28.0815 16.6177 28.9114 17.1059 29.8488 17.4573C30.7861 17.7893 31.8015 17.9553 32.895 17.9553C33.7542 17.9553 34.5548 17.8381 35.2969 17.6038C36.0389 17.3695 36.7126 17.0668 37.3179 16.6958C37.9428 16.3248 38.5091 15.9147 39.0168 15.4656L40.5692 18.0725C40.081 18.5606 39.4171 19.0391 38.5774 19.5077C37.7378 19.9764 36.7907 20.3571 35.7362 20.65C34.6817 20.943 33.598 21.0894 32.4849 21.0894Z" fill="black"/>
<path d="M56.2927 21.0894C54.6914 21.0894 53.2269 20.8258 51.899 20.2986C50.5712 19.7713 49.4093 19.0293 48.4134 18.0725C47.4175 17.1156 46.6462 16.0026 46.0994 14.7333C45.5722 13.4445 45.3086 12.0483 45.3086 10.5447C45.3086 9.04111 45.5722 7.65468 46.0994 6.38541C46.6462 5.09661 47.4175 3.97379 48.4134 3.01696C49.4093 2.06012 50.5712 1.31809 51.899 0.790853C53.2269 0.263618 54.6914 0 56.2927 0C57.8744 0 59.3291 0.263618 60.657 0.790853C62.0044 1.31809 63.1663 2.06989 64.1426 3.04625C65.1385 4.00308 65.9098 5.1259 66.4566 6.4147C67.0033 7.68397 67.2767 9.06064 67.2767 10.5447C67.2767 12.0288 67.0033 13.4152 66.4566 14.704C65.9098 15.9733 65.1385 17.0961 64.1426 18.0725C63.1663 19.0293 62.0044 19.7713 60.657 20.2986C59.3291 20.8258 57.8744 21.0894 56.2927 21.0894ZM56.2927 18.0139C57.4252 18.0139 58.4602 17.8284 59.3975 17.4573C60.3543 17.0863 61.1745 16.5689 61.8579 15.9049C62.5609 15.2215 63.0979 14.4306 63.4689 13.5324C63.8595 12.6146 64.0547 11.6187 64.0547 10.5447C64.0547 9.47071 63.8595 8.48458 63.4689 7.58633C63.0979 6.66855 62.5609 5.8777 61.8579 5.21377C61.1745 4.53032 60.3543 4.00308 59.3975 3.63207C58.4602 3.26105 57.4252 3.07554 56.2927 3.07554C55.1601 3.07554 54.1154 3.26105 53.1585 3.63207C52.2212 4.00308 51.4011 4.53032 50.6981 5.21377C49.9951 5.8777 49.4581 6.66855 49.0871 7.58633C48.7161 8.48458 48.5306 9.47071 48.5306 10.5447C48.5306 11.6187 48.7161 12.6146 49.0871 13.5324C49.4581 14.4306 49.9951 15.2215 50.6981 15.9049C51.4011 16.5689 52.2212 17.0863 53.1585 17.4573C54.1154 17.8284 55.1601 18.0139 56.2927 18.0139Z" fill="black"/>
<path d="M73.491 20.7965V0.292908H83.5084C84.6996 0.292908 85.7931 0.576053 86.789 1.14234C87.7849 1.70863 88.5758 2.47996 89.1616 3.45632C89.7474 4.43268 90.0403 5.52621 90.0403 6.7369C90.0403 7.889 89.7279 8.95324 89.103 9.9296C88.4977 10.906 87.6775 11.687 86.6426 12.2729C85.6271 12.8587 84.5043 13.1516 83.2741 13.1516H76.6544V20.7965H73.491ZM87.1405 20.7965L81.2238 11.5406L84.5336 10.8083L91.0362 20.8258L87.1405 20.7965ZM76.6544 10.1053H83.3327C83.9771 10.1053 84.5531 9.95889 85.0609 9.66598C85.5881 9.35354 85.9982 8.94347 86.2911 8.43576C86.6035 7.90853 86.7597 7.33247 86.7597 6.7076C86.7597 6.06321 86.584 5.48715 86.2325 4.97944C85.9005 4.47174 85.4319 4.07143 84.8265 3.77852C84.2407 3.48561 83.5768 3.33916 82.8348 3.33916H76.6544V10.1053Z" fill="black"/>
<path d="M97.5472 20.7965V0.292908H112.105V3.33916H100.711V17.7503H112.105V20.7965H97.5472ZM99.0996 11.8042V8.75796H110.494V11.8042H99.0996Z" fill="black"/>
<path d="M119.172 20.7965V0.292908H128.955C130.107 0.292908 131.152 0.576053 132.089 1.14234C133.046 1.68911 133.808 2.4409 134.374 3.39774C134.96 4.35457 135.253 5.41881 135.253 6.59044C135.253 7.7816 134.95 8.86536 134.345 9.84172C133.759 10.8181 132.968 11.5992 131.972 12.185C130.996 12.7708 129.912 13.0637 128.721 13.0637H122.336V20.7965H119.172ZM122.336 10.0175H128.574C129.18 10.0175 129.736 9.86125 130.244 9.54882C130.771 9.23638 131.191 8.82631 131.504 8.3186C131.816 7.79137 131.972 7.21531 131.972 6.59044C131.972 5.9851 131.816 5.43833 131.504 4.95015C131.191 4.46197 130.771 4.07143 130.244 3.77852C129.736 3.48561 129.18 3.33916 128.574 3.33916H122.336V10.0175Z" fill="black"/>
<path d="M141.484 20.7965V0.292908H144.647V17.7503H155.895V20.7965H141.484Z" fill="black"/>
<path d="M160.193 20.7965L168.951 0.292908H172.378L181.077 20.7965H177.65L172.085 7.73278C171.987 7.49846 171.851 7.15673 171.675 6.7076C171.519 6.23895 171.343 5.74101 171.148 5.21377C170.953 4.68654 170.767 4.18859 170.591 3.71994C170.416 3.23176 170.279 2.85098 170.181 2.57759L170.972 2.5483C170.835 2.93885 170.679 3.36845 170.503 3.8371C170.347 4.30575 170.171 4.78417 169.976 5.27235C169.8 5.76053 169.625 6.22919 169.449 6.67831C169.273 7.10791 169.117 7.49846 168.98 7.84995L163.444 20.7965H160.193ZM164.03 15.8171L165.26 12.7708H175.688L176.713 15.8171H164.03Z" fill="black"/>
<path d="M190.401 20.7965V10.9841L190.752 12.7708L181.379 0.292908H185.421L192.422 9.87102L191.719 9.81243L198.251 0.292908H202L193.242 12.6244L193.564 10.7497V20.7965H190.401Z" fill="black"/>
</svg>
