<svg xmlns="http://www.w3.org/2000/svg" viewBox="0 0 24 24">
    <path
    fill="#F8FBD3"
    d="M21.75 18a3 3 0 0 1-2.8 3H5.25a3 3 0 0 1-3-2.8V6a3 3 0 0 1 2.8-3h13.7a3 3 0 0 1 3 2.8V18ZM8.33 10.5H5.25c-.35 0-.68.12-.95.34l-.11.1c-.25.25-.4.57-.43.91l-.01.15v6a1.5 1.5 0 0 0 1.35 1.5h13.65a1.5 1.5 0 0 0 1.5-1.35V12a1.5 1.5 0 0 0-1.35-1.5h-3.23l-.03.15a3.75 3.75 0 0 1-7.28 0l-.03-.15Zm10.42-3H5.25a1.5 1.5 0 0 0-1.5 1.35v.55a3 3 0 0 1 1.3-.4H9c.38 0 .7.28.74.65l.01.1a2.25 2.25 0 0 0 4.5.2v-.2c0-.38.28-.7.65-.74L15 9h3.75a3 3 0 0 1 1.5.4V9a1.5 1.5 0 0 0-1.35-1.5h-.15Zm0-3H5.25a1.5 1.5 0 0 0-1.5 1.35v.55a3 3 0 0 1 1.3-.4h13.7a3 3 0 0 1 1.5.4V6a1.5 1.5 0 0 0-1.35-1.5h-.15Z"
    />
</svg>