<svg xmlns="http://www.w3.org/2000/svg" width="24" height="24"><path fill="#000" fill-rule="nonzero" d="M8.03 11.47c.27.27.3.68.07.98l-.07.08-3.22 3.22H16.5a.75.75 0 0 1 .1 1.5H4.81l3.22 3.22a.75.75 0 0 1-.98 1.13l-.08-.07-4.5-4.5-.05-.06-.05-.06-.05-.1-.04-.11-.02-.1v-.14l.01-.13.03-.1.05-.1.05-.08.07-.08 4.5-4.5c.3-.3.77-.3 1.06 0Zm8.92-9.07.08.07 4.5 4.5.07.08-.07-.08.04.04.04.05.07.12.04.1.02.11v.15l-.01.13-.03.1-.05.1-.03.05-.03.04-.06.07-4.5 4.5a.75.75 0 0 1-1.13-.98l.07-.08 3.22-3.22H7.5a.75.75 0 0 1-.1-1.5h11.79l-3.22-3.22a.75.75 0 0 1 .98-1.13Z"/></svg>