<svg width="42" height="24" viewBox="0 0 42 24" fill="none" xmlns="http://www.w3.org/2000/svg">
<g id="icon_lock">
<rect id="Rectangle 3471181" x="0.5" y="0.5" width="40.1899" height="23" rx="11.5" stroke="#1C1C1C"/>
<path id="Vector" fill-rule="evenodd" clip-rule="evenodd" d="M20.4585 4C18.2157 4 16.3988 5.66362 16.3988 7.72424V10.0146H15.5594C14.7013 10.0146 14 10.6578 14 11.4485V17.5662C14 18.3568 14.7013 19 15.5594 19H25.4406C26.2987 19 27 18.3568 27 17.5662V11.4485C27 10.6578 26.2987 10.0146 25.4406 10.0146H24.5182V7.72424C24.5182 5.66362 22.7013 4 20.4585 4ZM20.4585 4.51717C22.404 4.51717 23.9593 5.94367 23.9593 7.72424V10.0146H16.9577V7.72424C16.9577 5.94367 18.513 4.51717 20.4585 4.51717ZM15.5594 10.5323H16.6794H24.2377H25.4406C26.0014 10.5323 26.4411 10.9379 26.4411 11.4485V17.5662C26.4411 18.0768 26.0014 18.4823 25.4406 18.4823H15.5594C14.9986 18.4823 14.5589 18.0768 14.5589 17.5662V11.4485C14.5589 10.9379 14.9986 10.5323 15.5594 10.5323ZM20.5 12.5232C19.6739 12.5232 18.9963 13.1437 18.9963 13.905C18.9963 14.5789 19.5269 15.1424 20.2216 15.2631V16.2318C20.2219 16.3 20.2513 16.3654 20.3035 16.4137C20.3556 16.4619 20.4263 16.4891 20.5 16.4894C20.5367 16.4895 20.5731 16.483 20.607 16.4701C20.641 16.4572 20.6719 16.4383 20.6979 16.4144C20.724 16.3904 20.7447 16.362 20.7589 16.3307C20.773 16.2994 20.7804 16.2658 20.7805 16.2318V15.2626C21.474 15.141 22.0037 14.5781 22.0037 13.905C22.0037 13.1437 21.3261 12.5232 20.5 12.5232ZM20.4754 13.0404C20.4836 13.0402 20.4918 13.0404 20.5 13.0404C21.0267 13.0404 21.4448 13.4257 21.4448 13.905C21.4448 14.3844 21.0267 14.7697 20.5 14.7697C19.9733 14.7697 19.5552 14.3844 19.5552 13.905C19.5552 13.4332 19.9603 13.0522 20.4754 13.0404Z" fill="black" stroke="black" stroke-width="0.4"/>
</g>
</svg>
