<svg xmlns="http://www.w3.org/2000/svg" width="24" height="24"><path fill="#131313" fill-rule="nonzero" d="M16.5 6.75c.38 0 .7.28.74.65l.01.1v11.69l3.22-3.22a.75.75 0 0 1 1.13.98l-.07.08-4.5 4.5a.75.75 0 0 1-.08.07l.08-.07-.04.04-.05.04-.12.07-.1.04-.08.02h-.19l-.12-.01-.1-.03-.1-.05-.08-.05-.08-.07-4.5-4.5a.75.75 0 0 1 .98-1.13l.08.07 3.22 3.22V7.49c0-.4.34-.74.75-.74Zm-9.08-4.5h.13l.12.02.1.03.1.05.05.03.04.03.07.06 4.5 4.5a.75.75 0 0 1-.98 1.13l-.08-.07L8.25 4.8V16.5a.75.75 0 0 1-1.5.1V4.81L3.53 8.03a.75.75 0 0 1-1.13-.98l.07-.08 4.5-4.5.04-.04.05-.04.12-.07.1-.04.08-.02h.06Z"/></svg>