<svg width="400" height="400" viewBox="0 0 400 400" fill="none" xmlns="http://www.w3.org/2000/svg">
<rect width="400" height="400" fill="url(#paint0_linear_35_22)"/>
<path d="M194.399 142.833C195.808 138.986 199.654 136.724 203.17 138.77C206.357 140.684 207.231 144.829 207.663 148.315C208.975 162.423 209.221 176.967 209.499 191.195C216.657 191.354 223.994 191.56 230.992 191.771C239.046 192.286 247.418 192.059 255.338 193.838C264.379 196.419 262.857 205.61 253.98 207.07C242.07 208.808 232.051 208.664 219.657 209.106C216.235 209.193 212.851 209.288 209.485 209.366C209.326 216.566 209.12 223.951 208.907 230.992C208.393 239.046 208.62 247.418 206.841 255.338C204.26 264.379 195.069 262.857 193.608 253.98C191.871 242.07 192.014 232.051 191.572 219.657C191.485 216.21 191.388 212.803 191.31 209.414C190.393 209.389 189.474 209.36 188.554 209.322C180.161 209.096 172.158 208.983 163.816 208.593C156.884 208.007 149.508 208.459 142.833 206.279C138.986 204.871 136.724 201.025 138.771 197.509C140.684 194.321 144.829 193.447 148.315 193.016C162.447 191.702 177.016 191.455 191.268 191.176C191.292 190.303 191.321 189.429 191.356 188.553C191.583 180.16 191.695 172.158 192.086 163.816C192.672 156.884 192.22 149.508 194.399 142.833ZM155.26 156.654C162.408 156.315 169.566 156.027 169.566 162.793C169.566 168.934 162.592 169.968 162.572 169.971C148.215 172.027 124.576 176.13 112.32 181.251C93.8911 188.953 92.373 196.615 92.373 199.71C92.3732 202.805 93.8921 210.466 112.32 218.168C124.576 223.289 148.215 227.402 162.572 229.448C162.591 229.451 169.566 230.485 169.566 236.626C169.566 243.392 162.398 243.104 155.26 242.765C112.31 240.729 77 223.031 77 199.452C77.0003 175.873 112.31 158.711 155.26 156.654ZM231.277 162.793C231.277 156.027 238.436 156.315 245.584 156.654C288.534 158.69 323.844 175.853 323.844 199.432V199.452C323.844 223.031 288.534 240.729 245.584 242.765C238.446 243.104 231.277 243.392 231.277 236.626C231.277 230.495 238.23 229.454 238.271 229.448C252.629 227.402 276.268 223.289 288.523 218.168C306.952 210.466 308.471 202.805 308.471 199.71C308.471 196.615 306.953 188.953 288.523 181.251C276.268 176.13 252.629 172.027 238.271 169.971C238.23 169.964 231.277 168.924 231.277 162.793Z" fill="#F8FBD3"/>
<defs>
<linearGradient id="paint0_linear_35_22" x1="200" y1="0" x2="200" y2="400" gradientUnits="userSpaceOnUse">
<stop stop-color="#62839F"/>
<stop offset="1" stop-color="#8A98A3"/>
</linearGradient>
</defs>
</svg>
