<svg xmlns="http://www.w3.org/2000/svg" width="40" height="40"><g fill="none" fill-rule="nonzero"><rect width="40" height="40" fill="#2775CA" rx="12"/><path fill="#FFF" d="M23.32 7.86c.08-.29.36-.43.65-.29a13.1 13.1 0 0 1 8.46 8.53 12.98 12.98 0 0 1-8.63 16.4h-.12a.54.54 0 0 1-.42-.48V30.9c0-.36.14-.58.42-.72a10.69 10.69 0 0 0 6.44-6.43c2.1-5.57-.8-11.85-6.44-13.88a1 1 0 0 1-.42-.62v-1.1c0-.15 0-.23.06-.3Zm-7-.36c.25.06.4.24.42.48V9.1c0 .36-.14.58-.42.72a10.69 10.69 0 0 0-6.44 6.43c-2.1 5.57.8 11.85 6.44 13.88.18.12.37.36.42.56V31.86c0 .1 0 .15-.06.2-.08.3-.36.44-.65.3a13 13 0 0 1 0-24.79c.04-.04.1-.06.17-.06l.12-.01Zm4.19 3.76c.32.06.53.24.57.5v1.81a3.6 3.6 0 0 1 3.22 2.79l.04.17v.07a.5.5 0 0 1-.43.5l-.08.01h-1.16a.54.54 0 0 1-.5-.36c-.36-1.09-1.09-1.52-2.39-1.52-1.44 0-2.16.65-2.16 1.66 0 1.01.43 1.6 2.6 1.88 3.03.36 4.55 1.23 4.55 3.76 0 1.89-1.35 3.37-3.4 3.79l-.21.04v1.73c-.07.33-.25.54-.5.57l-.08.01h-1.09c-.32-.06-.53-.25-.57-.5v-1.81c-2.3-.35-3.47-1.58-3.8-3.3l-.03-.17v-.07a.5.5 0 0 1 .42-.5h1.31c.22 0 .43.14.5.43.22 1.08.87 1.87 2.75 1.87 1.37 0 2.39-.8 2.39-1.95s-.65-1.59-2.68-1.95c-3.03-.36-4.48-1.3-4.48-3.68 0-1.75 1.29-3.16 3.34-3.51l.2-.03v-1.66c.07-.33.25-.54.5-.58H20.5Z"/></g></svg>